<svg width="38" height="38" viewBox="0 0 38 38" fill="none" xmlns="http://www.w3.org/2000/svg">
<g clip-path="url(#clip0_14_927)">
<path d="M38 19C38 8.50666 29.4933 0 19 0C8.50666 0 0 8.50651 0 19C0 28.4834 6.94806 36.3439 16.0312 37.7692V24.4922H11.207V19H16.0312V14.8141C16.0312 10.0522 18.8679 7.42188 23.2078 7.42188C25.2866 7.42188 27.4609 7.79297 27.4609 7.79297V12.4688H25.0652C22.7047 12.4688 21.9688 13.9334 21.9688 15.436V19H27.2383L26.3959 24.4922H21.9688V37.7692C31.0519 36.3439 38 28.4835 38 19Z" fill="#0F67D9"/>
<path d="M26.3959 24.4922L27.2383 19H21.9688V15.436C21.9688 13.9332 22.7049 12.4688 25.0652 12.4688H27.4609V7.79297C27.4609 7.79297 25.2866 7.42188 23.2078 7.42188C18.8679 7.42188 16.0312 10.0522 16.0312 14.8141V19H11.207V24.4922H16.0312V37.7692C17.0133 37.9231 18.0059 38.0003 19 38C19.9941 38.0003 20.9867 37.9231 21.9688 37.7692V24.4922H26.3959Z" fill="white"/>
</g>
<defs>
<clipPath id="clip0_14_927">
<rect width="38" height="38" fill="white"/>
</clipPath>
</defs>
</svg>
