<svg width="38" height="38" viewBox="0 0 38 38" fill="none" xmlns="http://www.w3.org/2000/svg">
<g clip-path="url(#clip0_14_1241)">
<circle cx="19" cy="19" r="15.96" fill="white"/>
<path d="M19 0C8.51169 0 0 8.51169 0 19C0 29.4883 8.51169 38 19 38C29.4883 38 38 29.4883 38 19C38 8.51169 29.4883 0 19 0ZM13.5835 28.5C11.0639 28.5 8.64755 27.4991 6.86595 25.7175C5.08436 23.9359 4.08347 21.5196 4.08347 19C4.08347 16.4804 5.08436 14.0641 6.86595 12.2825C8.64755 10.5009 11.0639 9.5 13.5835 9.5C15.9815 9.5 18.1879 10.3427 19.9423 11.9746L17.3681 14.4722C16.3569 13.4839 14.9702 13.0089 13.5835 13.0089C10.2968 13.0089 7.66895 15.7286 7.66895 18.9923C7.66895 22.256 10.2891 24.9758 13.5835 24.9758C16.081 24.9758 18.5556 23.5125 18.954 20.8923H13.5835V17.6286H22.5395C22.6384 18.1514 22.6871 18.6825 22.6851 19.2145C22.6851 24.6387 19.046 28.5 13.5835 28.5ZM31.2198 20.3637V23.0835H28.5V20.3637H25.7802V17.644H28.5V14.9242H31.2198V17.644H33.9165V20.3637H31.2198Z" fill="#DF4B38"/>
</g>
<defs>
<clipPath id="clip0_14_1241">
<rect width="38" height="38" fill="white"/>
</clipPath>
</defs>
</svg>
