<svg width="38" height="38" viewBox="0 0 38 38" fill="none" xmlns="http://www.w3.org/2000/svg">
<g clip-path="url(#clip0_14_930)">
<circle cx="19" cy="19" r="14.25" fill="white"/>
<path d="M19 0C8.50759 0 0 8.50759 0 19C0 29.4924 8.50759 38 19 38C29.4924 38 38 29.4924 38 19C38 8.50759 29.4924 0 19 0ZM28.131 14.3221C28.1437 14.5214 28.1437 14.7292 28.1437 14.9328C28.1437 21.1587 23.4022 28.3304 14.7377 28.3304C12.0658 28.3304 9.58906 27.5542 7.50245 26.2183C7.88415 26.2607 8.24888 26.2777 8.63906 26.2777C10.8444 26.2777 12.8717 25.5312 14.4875 24.2674C12.4179 24.225 10.679 22.8679 10.0853 21.0018C10.8105 21.1078 11.4636 21.1078 12.21 20.917C11.1444 20.7005 10.1865 20.1217 9.49922 19.279C8.81192 18.4363 8.43755 17.3816 8.43973 16.2942V16.2348C9.06317 16.5868 9.79688 16.8031 10.5645 16.8328C9.9192 16.4027 9.38998 15.8201 9.02378 15.1365C8.65757 14.4529 8.4657 13.6896 8.46518 12.9141C8.46518 12.0362 8.6942 11.2346 9.10558 10.5391C10.2884 11.9952 11.7644 13.1861 13.4377 14.0344C15.1109 14.8827 16.944 15.3694 18.8176 15.4629C18.1518 12.2609 20.5437 9.66964 23.4192 9.66964C24.7763 9.66964 25.9978 10.2379 26.8587 11.154C27.9232 10.9547 28.9411 10.556 29.8487 10.0217C29.4967 11.1116 28.7587 12.0319 27.779 12.6129C28.729 12.5112 29.6451 12.2482 30.4933 11.8792C29.8529 12.8208 29.0513 13.6562 28.131 14.3221Z" fill="#249BE8"/>
</g>
<defs>
<clipPath id="clip0_14_930">
<rect width="38" height="38" fill="white"/>
</clipPath>
</defs>
</svg>
